<?xml version="1.0" encoding="UTF-8" standalone="no"?>
<!DOCTYPE svg PUBLIC "-//W3C//DTD SVG 1.1//EN" "http://www.w3.org/Graphics/SVG/1.1/DTD/svg11.dtd">
<svg width="100%" height="100%" viewBox="0 0 512 512" version="1.1" xmlns="http://www.w3.org/2000/svg" xmlns:xlink="http://www.w3.org/1999/xlink" xml:space="preserve" xmlns:serif="http://www.serif.com/" style="fill-rule:evenodd;clip-rule:evenodd;stroke-linejoin:round;stroke-miterlimit:2;">
    <path d="M48,256C48,370.9 141.1,464 256,464C370.9,464 464,370.9 464,256C464,141.1 370.9,48 256,48C141.1,48 48,141.1 48,256ZM292.5,256L210.6,174.9C203.1,167.4 203.1,155.1 210.6,147.6C218.1,140.1 230.4,140.1 237.9,147.6L333.3,243.3C340.6,250.6 340.8,262.4 333.9,269.9L239.9,364.2C236.1,368 231.2,369.9 226.2,369.9C221.3,369.9 216.3,368 212.6,364.3C205.1,356.8 205,344.6 212.6,337L292.5,256Z" style="fill:rgb(193,193,193);fill-rule:nonzero;"/>
</svg>
